<svg width="42" height="52" viewBox="0 0 42 52" fill="none" xmlns="http://www.w3.org/2000/svg">
<path d="M39.3333 18V17.5425C39.3333 16.128 38.762 14.7714 37.7449 13.7712L27.3636 3.56211C26.3465 2.56189 24.967 2 23.5288 2H23.0635M39.3333 18V39.3333C39.3333 42.2789 36.9053 44.6667 33.91 44.6667H25.7751M39.3333 18H28.4868C25.4915 18 23.0635 15.6122 23.0635 12.6667V2M23.0635 2H12.2169C9.22165 2 6.79356 4.38781 6.79356 7.33333V26M7.42329 44.6667V39.3333M7.42329 44.6667V50M7.42329 44.6667H2M7.42329 44.6667H12.8466" stroke="#999999" stroke-width="3.6" stroke-linecap="round"/>
</svg>
