<svg width="24" height="24" viewBox="0 0 24 24" fill="none" xmlns="http://www.w3.org/2000/svg">
<path d="M19 8.68421H15.3044C14.2838 8.68421 13.4565 7.83591 13.4565 6.78947V3M19 8.52167V16.2632C19 17.3096 18.1727 18.1579 17.1522 18.1579H9.76088C8.74036 18.1579 7.91306 17.3096 7.91306 16.2632V4.89474C7.91306 3.8483 8.74036 3 9.76088 3H13.6151C14.1051 3 14.5751 3.19962 14.9217 3.55496L18.4588 7.18188C18.8054 7.53722 19 8.01915 19 8.52167Z" stroke="#E8E8E8" stroke-width="1.2" stroke-linecap="round"/>
<path d="M6.53775 5.8421C5.51722 5.8421 5 6.6904 5 7.73684V19.1053C5 20.1517 5.8273 21 6.84783 21H14.2391C15.2597 21 16.1648 20.6254 16.1648 19.5789" stroke="#E8E8E8" stroke-width="1.2" stroke-linecap="square"/>
</svg>
