<svg width="42" height="52" viewBox="0 0 42 52" fill="none" xmlns="http://www.w3.org/2000/svg">
<path d="M39.8947 17.1579H29.8915C27.1291 17.1579 24.8898 14.8958 24.8898 12.1053V2M39.8947 16.7245V37.3684C39.8947 40.159 37.6555 42.4211 34.8931 42.4211H14.8866C12.1242 42.4211 9.88492 40.159 9.88492 37.3684V7.05263C9.88492 4.26214 12.1242 2 14.8866 2H25.319C26.6454 2 27.9176 2.53232 28.8556 3.47989L38.4298 13.1517C39.3678 14.0993 39.8947 15.3844 39.8947 16.7245Z" stroke="#999999" stroke-width="3.6" stroke-linecap="round"/>
<path d="M6.16232 9.57895C3.39999 9.57895 2 11.8411 2 14.6316V44.9474C2 47.7379 4.23931 50 7.00164 50H27.0082C29.7706 50 32.2205 49.0011 32.2205 46.2105" stroke="#999999" stroke-width="3.6" stroke-linecap="square"/>
</svg>
