<svg width="12" height="60" viewBox="0 0 12 60" fill="none" xmlns="http://www.w3.org/2000/svg">
<path d="M12 54C12 50.6863 9.31371 48 6 48C2.68629 48 0 50.6863 0 54C0 57.3137 2.68629 60 6 60C9.31371 60 12 57.3137 12 54Z" fill="#999999"/>
<path d="M12 30C12 26.6863 9.31371 24 6 24C2.68629 24 0 26.6863 0 30C0 33.3137 2.68629 36 6 36C9.31371 36 12 33.3137 12 30Z" fill="#999999"/>
<path d="M12 6C12 2.68629 9.31371 0 6 0C2.68629 0 0 2.68629 0 6C0 9.31371 2.68629 12 6 12C9.31371 12 12 9.31371 12 6Z" fill="#999999"/>
</svg>
