<svg width="54" height="54" viewBox="0 0 54 54" fill="none" xmlns="http://www.w3.org/2000/svg">
<path d="M19.0545 23.223L34.9321 15.2206M34.5408 39.7059L18.8079 31.2353M51 11.4706C51 16.1488 47.2077 19.9412 42.5294 19.9412C37.8511 19.9412 34.0588 16.1488 34.0588 11.4706C34.0588 6.79242 37.8511 3 42.5294 3C47.2077 3 51 6.79242 51 11.4706ZM19.9412 27C19.9412 31.6783 16.1487 35.4706 11.4706 35.4706C6.79241 35.4706 2.99998 31.6783 2.99998 27C2.99998 22.3217 6.79241 18.5294 11.4706 18.5294C16.1487 18.5294 19.9412 22.3217 19.9412 27ZM51 42.5294C51 47.2077 47.2077 51 42.5294 51C37.8511 51 34.0588 47.2077 34.0588 42.5294C34.0588 37.8511 37.8511 34.0588 42.5294 34.0588C47.2077 34.0588 51 37.8511 51 42.5294Z" stroke="#999999" stroke-width="4.2" stroke-linecap="round"/>
</svg>
