<svg width="52" height="52" viewBox="0 0 52 52" fill="none" xmlns="http://www.w3.org/2000/svg">
<path d="M46.3878 12.0041C45.8728 11.1698 45.027 10.5589 44.0361 10.3097C43.0428 10.0606 41.987 10.1916 41.0982 10.6733C39.6211 11.4724 37.8403 11.4715 36.3643 10.6709L34.8344 9.84137C33.4497 9.09043 32.5874 7.64162 32.5874 6.06641C32.5874 4.05828 30.8589 2.375 28.7213 2.375H23.2784C21.1409 2.375 19.4122 4.05828 19.4122 6.06641C19.4122 7.64172 18.5501 9.09069 17.1655 9.84218L15.6377 10.6715C14.1615 11.4728 12.3802 11.4734 10.9034 10.6733C10.0146 10.1916 8.95661 10.0605 7.96357 10.3097C6.97245 10.5589 6.12691 11.1698 5.61165 12.0041L2.89401 16.4264C2.38077 17.2606 2.24112 18.2536 2.50662 19.1838C2.77208 20.1159 3.42101 20.9096 4.30986 21.3913C5.76411 22.1806 6.66992 23.7026 6.67042 25.3571L6.67078 26.6429C6.67128 28.2974 5.76595 29.8194 4.31183 30.6087C3.42298 31.0922 2.77206 31.8842 2.50662 32.8142C2.24115 33.7464 2.38075 34.7394 2.89401 35.5736L5.61559 39.996C6.1288 40.8302 6.97439 41.441 7.96554 41.6904C8.95863 41.9395 10.0146 41.8085 10.9054 41.3266C12.3824 40.5275 14.1631 40.5286 15.6393 41.3292L17.1635 42.1558C18.5492 42.9074 19.4122 44.3571 19.4122 45.9337C19.4122 47.9418 21.1406 49.625 23.2784 49.625H28.7198C30.8591 49.625 32.5859 47.9418 32.5859 45.9337C32.5869 44.3571 33.4508 42.9076 34.8365 42.1561L36.3624 41.3289C37.8387 40.5283 39.6195 40.5275 41.0966 41.3266C41.9873 41.8083 43.0433 41.9395 44.0345 41.6904C45.0276 41.441 45.8731 40.8302 46.3863 39.996L49.106 35.5736C49.6192 34.7394 49.7589 33.7464 49.4935 32.8161C49.2278 31.8842 48.5789 31.0904 47.6901 30.6087C46.2359 29.8194 45.3305 28.2974 45.3305 26.6429V25.3571C45.3305 23.7026 46.2359 22.1806 47.6901 21.3913C48.5789 20.9078 49.2278 20.1159 49.4935 19.1856C49.7589 18.2535 49.6192 17.2606 49.106 16.4263L46.3878 12.0041Z" stroke="#999999" stroke-width="4.2" stroke-linecap="round"/>
<path d="M33.875 26C33.875 30.3494 30.3494 33.875 26 33.875C21.6506 33.875 18.125 30.3494 18.125 26C18.125 21.6506 21.6506 18.125 26 18.125C30.3494 18.125 33.875 21.6506 33.875 26Z" stroke="#999999" stroke-width="4.2" stroke-linecap="round"/>
</svg>
