<svg width="24" height="24" viewBox="0 0 24 24" fill="none" xmlns="http://www.w3.org/2000/svg">
<path d="M19 9V8.82843C19 8.29799 18.7857 7.78929 18.4043 7.41421L14.5113 3.58579C14.1299 3.21071 13.6126 3 13.0733 3H12.8988M19 9V17C19 18.1046 18.0895 19 16.9663 19H13.9157M19 9H14.9325C13.8093 9 12.8988 8.10457 12.8988 7V3M12.8988 3H8.83132C7.70812 3 6.79759 3.89543 6.79759 5V12M7.03373 19V17M7.03373 19V21M7.03373 19H5M7.03373 19H9.06747" stroke="#5B5B5B" stroke-width="1.2" stroke-linecap="round"/>
</svg>
